<svg version="1" xmlns="http://www.w3.org/2000/svg" width="682.667" height="682.667" viewBox="0 0 512.000000 512.000000"><path d="M267.5 158c-14.6 3-29.6 12.9-40.2 26.6-10.1 13-18.4 34.3-20.9 53.4-.3 2.5-.7 5.6-1 7-.6 3.6-.6 25.7.1 32.1 4.6 43 25.2 74.7 55.4 85.1 5.7 2 8.5 2.3 20.1 2.2 11.9-.1 14.3-.4 20.2-2.6 21.2-8 36.7-24.9 46.3-50.4 6-15.9 8-28.5 8-50.4 0-18.9-.9-26.2-5.1-41.3-8.7-31.2-28.5-53.7-53.2-60.6-7.2-2-22.7-2.6-29.7-1.1zm27.5 41.2c6.1 2.9 11.9 8.1 15.4 13.7 2.5 4 6.6 13.3 7.1 16.3.2 1.1.6 2.7.9 3.6 3.5 11.7 3.8 37.2.6 53.2-3.6 17.8-12.2 31-23.9 36.8-4.9 2.3-6.8 2.7-14.6 2.7-7.6 0-9.9-.4-14.5-2.6-17.8-8.4-27.3-31.8-26.5-65.3.5-17 2.7-28 8.1-39.1 5-10.5 10.8-16.2 20.1-20 8.1-3.4 19.4-3.1 27.3.7zM426 158.6c-20.8 5.5-38.5 22.7-48.1 46.5-2.5 6.3-6.6 20.6-7.4 25.8-.3 2-.8 4.8-1.1 6.1-1 4.2-1.3 40.2-.4 45 .5 2.5 1.1 6.5 1.5 9 .3 2.5 1.3 7.2 2.2 10.5 10.2 40.4 34.4 63.6 66.3 63.6 4.7-.1 10-.5 11.8-1 1.7-.5 3.2-.8 3.2-.6 0 .5 7.1-2 11.8-4.2 8.2-3.8 17-11.9 22.9-21 1.8-2.9 3.3-5.4 3.3-5.6 0-1.7-14.5-21.3-16.2-22-2.5-.9-5.5.9-10.3 6.1-4.5 5-11.5 8.3-19 9.1-10.5 1.1-18.1-1.5-26.7-9.2-6.4-5.7-13-20.6-15.8-35.7-1.3-7-1.6-29.6-.5-37 3.3-23.3 11.8-39 24.5-45.3 3.6-1.8 6.2-2.2 13-2.2 10.1 0 14.5 1.8 23.3 9 5.8 4.9 9.3 5.9 12.2 3.5 1.9-1.6 13.5-23.3 13.5-25.2 0-2.6-13.6-15.4-20.2-19.1-3.5-1.9-9.3-4.4-12.9-5.5-8.3-2.4-23.1-2.7-30.9-.6zM21 261v102h30.1l-.1-65.8v-66.7c0-.6 8.5 21.9 18.9 50 10.3 28 19.5 52.4 20.3 54 3 5.7 5.3 7 12.9 7 10.1 0 10.8-1 21.2-29 15-40.3 28.4-76.9 29.1-79.3.4-1.2 1-2.2 1.4-2.2.4 0 .6 29.7.4 66l-.3 66H185V159h-15.7c-16.4.1-17.8.4-20.1 4.6-.9 1.7-14.4 38.4-33.4 90.9-7.2 19.9-11.8 33.5-11.8 35 0 3.9-1.8.4-5.2-9.8-4.4-13.6-40.4-113.2-42-116.1-2.3-4.2-3.7-4.5-20-4.6H21v102z"/></svg>